<svg height="512" viewBox="0 0 128 128" width="512" xmlns="http://www.w3.org/2000/svg"><g id="icon"><path d="m76.824 21.7-1.512-8.451a6.017 6.017 0 0 0 -5.928-4.961h-12.394a6.016 6.016 0 0 0 -5.927 4.961l-1.513 8.451-4.732-.848 1.512-8.452a10.819 10.819 0 0 1 10.66-8.923h12.394a10.818 10.818 0 0 1 10.66 8.923l1.512 8.45z" fill="#d0aa79"/><path d="m76.016 22.857-1.689-9.436a5.017 5.017 0 0 0 -4.943-4.137h-12.394a5.017 5.017 0 0 0 -4.943 4.137l-1.689 9.436-6.7-1.2 1.689-9.434a11.818 11.818 0 0 1 11.643-9.746h12.394a11.817 11.817 0 0 1 11.644 9.745l1.689 9.434zm-30.037-2.817 2.763.5 1.336-7.465a7.014 7.014 0 0 1 6.912-5.791h12.394a7.014 7.014 0 0 1 6.916 5.786l1.336 7.465 2.764-.5-1.34-7.461a9.82 9.82 0 0 0 -9.676-8.1h-12.394a9.82 9.82 0 0 0 -9.676 8.1z" fill="#2f3a5a"/><path d="m98.314 76.9h-1.441v50.1h8.818a8.969 8.969 0 0 0 8.969-8.969l2.4-22.379a18.75 18.75 0 0 0 -18.746-18.752z" fill="#c69f75"/><path d="m105.691 127.993h-9.818v-52.093h2.441a19.772 19.772 0 0 1 19.75 19.749l-.006.106-2.4 22.328a9.981 9.981 0 0 1 -9.967 9.91zm-7.818-2h7.818a7.978 7.978 0 0 0 7.969-7.968l.006-.107 2.4-22.326a17.769 17.769 0 0 0 -17.75-17.7h-.441z" fill="#2f3a5a"/><path d="m29.686 76.9h1.441l11.435 50.1h-20.253a8.969 8.969 0 0 1 -8.969-8.969l-2.4-22.379a18.75 18.75 0 0 1 18.746-18.752z" fill="#c69f75"/><path d="m43.816 127.993h-21.507a9.981 9.981 0 0 1 -9.969-9.914l-2.4-22.434a19.772 19.772 0 0 1 19.746-19.745h2.238zm-31.88-32.4 2.4 22.433a7.978 7.978 0 0 0 7.969 7.968h19l-10.975-48.094h-.644a17.769 17.769 0 0 0 -17.75 17.692z" fill="#2f3a5a"/><path d="m105.631 118.7a9.1 9.1 0 0 1 -9.048 8.3h-64.783a9.1 9.1 0 0 1 -9.032-8.253c-2.783-29.513-2.1-61.03 3.117-87.792a16.456 16.456 0 0 1 10.336-12.213 16.7 16.7 0 0 1 5.852-1.065h43.808a16.492 16.492 0 0 1 16.283 13.8 358.927 358.927 0 0 1 3.467 87.223z" fill="#d0aa79"/><path d="m96.583 128h-64.783a10.054 10.054 0 0 1 -10.028-9.158c-2.95-31.3-1.838-62.578 3.131-88.079a17.34 17.34 0 0 1 10.963-12.955 17.659 17.659 0 0 1 6.207-1.131h43.808a17.495 17.495 0 0 1 17.27 14.637 358.7 358.7 0 0 1 3.476 87.471 10.037 10.037 0 0 1 -10.044 9.215zm-54.51-109.323a15.479 15.479 0 0 0 -15.207 12.469c-4.934 25.317-6.036 56.4-3.1 87.508a8.061 8.061 0 0 0 8.034 7.346h64.783a8.046 8.046 0 0 0 8.051-7.385 356.59 356.59 0 0 0 -3.456-86.969 15.493 15.493 0 0 0 -15.3-12.969z" fill="#2f3a5a"/><rect fill="#ddb283" height="47.108" rx="5.272" width="61.723" x="32.325" y="73.282"/><path d="m94.053 78.553v36.569a5.275 5.275 0 0 1 -5.276 5.267h-51.177a5.271 5.271 0 0 1 -5.119-4.027h54.258a2.981 2.981 0 0 0 2.983-2.982v-40a5.265 5.265 0 0 1 4.331 5.173z" fill="#bf9a71"/><path d="m88.777 121.391h-51.177a6.278 6.278 0 0 1 -6.272-6.272v-36.565a6.278 6.278 0 0 1 6.272-6.271h51.177a6.279 6.279 0 0 1 6.272 6.271v36.565a6.279 6.279 0 0 1 -6.272 6.272zm-51.177-47.108a4.276 4.276 0 0 0 -4.272 4.271v36.565a4.277 4.277 0 0 0 4.272 4.272h51.177a4.278 4.278 0 0 0 4.272-4.272v-36.565a4.277 4.277 0 0 0 -4.272-4.271z" fill="#2f3a5a"/><path d="m73.231 2.41a39.529 39.529 0 0 0 -20.927 0 2.3 2.3 0 0 0 -1.578 2.963l1.287 3.758a2.267 2.267 0 0 0 2.724 1.47 31 31 0 0 1 16.062 0 2.268 2.268 0 0 0 2.724-1.47q.644-1.878 1.286-3.758a2.3 2.3 0 0 0 -1.578-2.963z" fill="#e8c79c"/><path d="m54.164 11.677a3.287 3.287 0 0 1 -3.1-2.222l-1.284-3.755a3.265 3.265 0 0 1 .2-2.606 3.33 3.33 0 0 1 2.06-1.648 40.539 40.539 0 0 1 21.456 0 3.328 3.328 0 0 1 2.054 1.646 3.265 3.265 0 0 1 .206 2.608l-1.287 3.755a3.281 3.281 0 0 1 -3.929 2.112 30.056 30.056 0 0 0 -15.544 0 3.219 3.219 0 0 1 -.832.11zm8.6-3.133a32.019 32.019 0 0 1 8.29 1.091 1.274 1.274 0 0 0 1.519-.828l1.286-3.758a1.273 1.273 0 0 0 -.081-1.021 1.308 1.308 0 0 0 -.815-.655 38.58 38.58 0 0 0 -20.4 0 1.31 1.31 0 0 0 -.816.655 1.277 1.277 0 0 0 -.081 1.021l1.287 3.758a1.267 1.267 0 0 0 1.519.828 32.019 32.019 0 0 1 8.296-1.091z" fill="#2f3a5a"/><path d="m92.2 21.229a4.245 4.245 0 0 0 -3.415-3.3 16.537 16.537 0 0 0 -2.9-.256h-43.812a16.543 16.543 0 0 0 -3.053.284 4.249 4.249 0 0 0 -3.386 3.224 83.593 83.593 0 0 0 -.558 30.426c.318 1.94 3.053 3.435 6.345 3.435h45.43c3.308 0 6.059-1.511 6.345-3.451a89.441 89.441 0 0 0 -.996-30.362z" fill="#ddb283"/><path d="m93.2 51.59c-.286 1.949-3.042 3.456-6.35 3.456h-45.432c-3.287 0-6.024-1.5-6.339-3.436-.02-.128-.039-.246-.049-.374a9.6 9.6 0 0 0 2.618.345h45.429c3.308 0 6.054-1.507 6.34-3.446a89.559 89.559 0 0 0 -.975-30.25c.118.01.226.03.345.05a4.243 4.243 0 0 1 3.415 3.3 89.442 89.442 0 0 1 .998 30.355z" fill="#bf9a71"/><path d="m86.851 56.045h-45.431c-3.842 0-6.925-1.8-7.331-4.272a84.129 84.129 0 0 1 .568-30.8 5.229 5.229 0 0 1 4.178-3.991 17.553 17.553 0 0 1 3.238-.3h43.808a17.488 17.488 0 0 1 3.077.272 5.27 5.27 0 0 1 4.219 4.078 89.834 89.834 0 0 1 1.009 30.712c-.363 2.456-3.516 4.301-7.335 4.301zm-44.778-37.368a15.554 15.554 0 0 0 -2.868.267 3.235 3.235 0 0 0 -2.595 2.456 82.108 82.108 0 0 0 -.546 30.054c.2 1.244 2.31 2.591 5.356 2.591h45.431c2.975 0 5.17-1.342 5.356-2.595a89.063 89.063 0 0 0 -.989-30.019 3.256 3.256 0 0 0 -2.61-2.514 15.646 15.646 0 0 0 -2.727-.24z" fill="#2f3a5a"/><path d="m43.711 43.007v53.829a3.958 3.958 0 1 0 7.915 0v-53.829z" fill="#c69f75"/><path d="m47.668 101.793a4.962 4.962 0 0 1 -4.957-4.957v-53.829a1 1 0 0 1 1-1h7.915a1 1 0 0 1 1 1v53.829a4.963 4.963 0 0 1 -4.958 4.957zm-2.957-57.786v52.829a2.958 2.958 0 0 0 5.915 0v-52.829z" fill="#2f3a5a"/><path d="m74.748 43.007v53.829a3.958 3.958 0 1 0 7.915 0v-53.829z" fill="#c69f75"/><path d="m78.706 101.81a4.97 4.97 0 0 1 -4.957-4.974v-53.829a1 1 0 0 1 1-1h7.914a1 1 0 0 1 1 1v53.829a4.971 4.971 0 0 1 -4.957 4.974zm-2.957-57.8v52.826a2.957 2.957 0 1 0 5.914 0v-52.829z" fill="#2f3a5a"/><rect fill="#dbe2eb" height="14.725" rx=".946" width="15.435" x="70.988" y="78.08"/><path d="m85.477 93.8h-13.542a1.948 1.948 0 0 1 -1.947-1.946v-12.828a1.949 1.949 0 0 1 1.947-1.947h13.542a1.949 1.949 0 0 1 1.946 1.947v12.832a1.948 1.948 0 0 1 -1.946 1.942zm-13.542-14.721.053 12.779 13.489-.058-.054-12.725z" fill="#2f3a5a"/><path d="m74.344 81.281h8.723v8.321h-8.723z" fill="#d0aa79"/><path d="m83.067 90.6h-8.723a1 1 0 0 1 -1-1v-8.318a1 1 0 0 1 1-1h8.723a1 1 0 0 1 1 1v8.318a1 1 0 0 1 -1 1zm-7.723-2h6.723v-6.318h-6.723z" fill="#2f3a5a"/><path d="m78.706 86.442a1 1 0 0 1 -1-1v-4.16a1 1 0 0 1 2 0v4.16a1 1 0 0 1 -1 1z" fill="#2f3a5a"/><rect fill="#dbe2eb" height="14.725" rx=".946" width="15.435" x="39.951" y="78.08"/><path d="m54.439 93.8h-13.539a1.948 1.948 0 0 1 -1.946-1.946v-12.828a1.949 1.949 0 0 1 1.946-1.947h13.539a1.949 1.949 0 0 1 1.947 1.947v12.832a1.948 1.948 0 0 1 -1.947 1.942zm-13.539-14.721.054 12.779 13.485-.058-.053-12.725z" fill="#2f3a5a"/><path d="m43.307 81.281h8.723v8.321h-8.723z" fill="#d0aa79"/><g fill="#2f3a5a"><path d="m52.03 90.6h-8.723a1 1 0 0 1 -1-1v-8.318a1 1 0 0 1 1-1h8.723a1 1 0 0 1 1 1v8.318a1 1 0 0 1 -1 1zm-7.723-2h6.723v-6.318h-6.723z"/><path d="m47.668 86.442a1 1 0 0 1 -1-1v-4.16a1 1 0 0 1 2 0v4.16a1 1 0 0 1 -1 1z"/></g></g></svg>