<svg height="512" viewBox="0 0 64 64" width="512" xmlns="http://www.w3.org/2000/svg"><path d="m59.86 12.63-7.35 7.35-7.07-1.42-1.42-7.07 7.35-7.35a12.009 12.009 0 0 0 -15.03 12.97 4.045 4.045 0 0 1 -1.21 3.28l-12.13 12.13-2.61 2.61a4.045 4.045 0 0 1 -3.28 1.21 12.009 12.009 0 0 0 -12.97 15.03l7.35-7.35 7.07 1.42 1.42 7.07-7.35 7.35a12.009 12.009 0 0 0 15.03-12.97 4.045 4.045 0 0 1 1.21-3.28l14.74-14.74a4.045 4.045 0 0 1 3.28-1.21 12.009 12.009 0 0 0 12.97-15.03z" fill="#ffcd00"/><path d="m9.25 40.78a11.988 11.988 0 0 1 9.86-3.44 4.045 4.045 0 0 0 3.28-1.21l2.61-2.61 12.13-12.13a4.045 4.045 0 0 0 1.21-3.28 11.982 11.982 0 0 1 12.409-13.349l.621-.621a12.009 12.009 0 0 0 -15.03 12.97 4.045 4.045 0 0 1 -1.21 3.28l-12.13 12.13-2.61 2.61a4.045 4.045 0 0 1 -3.28 1.21 12.009 12.009 0 0 0 -12.97 15.03l1.621-1.621a11.93 11.93 0 0 1 3.489-8.969z" fill="#ddb200"/><path d="m55.1 59.464 5.82 1.456-1.456-5.82a5.981 5.981 0 0 0 -4.364 4.364z" fill="#414042"/><path d="m14.981 17.809-2.831 2.831 11.37 11.36 8.48 8.48 17.607 17.607v-5.652z" fill="#d80027"/><path d="m58.087 49.607-17.607-17.607-8.48-8.48-11.36-11.37-2.831 2.831 34.626 34.626z" fill="#f7941d"/><path d="m49.607 52.435 3.535.707-.707-3.535-34.626-34.626-2.828 2.828z" fill="#f15a29"/><path d="m53.142 53.142-3.535-.707v5.652l5.493 1.377a5.981 5.981 0 0 1 4.364-4.364l-1.374-5.49h-5.655z" fill="#808285"/><path d="m14.394 16.393h4v.002h-4z" fill="#d1e7f8" transform="matrix(.707 -.707 .707 .707 -6.791 16.394)"/><path d="m20.636 12.151-4.243-4.243-8.485 8.485 4.243 4.243 2.828-2.828 2.829-2.829z" fill="#005ece"/><path d="m13.565 5.08a6 6 0 0 0 -8.485 8.485l2.828 2.828 8.485-8.485z" fill="#d1d3d4"/><path d="m61.89 60.677-2.83-11.31a1 1 0 0 0 -.26-.467l-16.906-16.9 2.423-2.423a3.045 3.045 0 0 1 2.459-.923 13.009 13.009 0 0 0 14.05-16.283 1 1 0 0 0 -1.673-.448l-6.971 6.971-5.892-1.184-1.185-5.892 6.972-6.971a1 1 0 0 0 -.448-1.673 13.009 13.009 0 0 0 -16.282 14.051 3.047 3.047 0 0 1 -.924 2.458l-2.423 2.423-17.728-17.733a7 7 0 1 0 -9.9 9.9l17.733 17.727-2.422 2.422a3.029 3.029 0 0 1 -2.459.923 13.009 13.009 0 0 0 -14.05 16.284 1 1 0 0 0 1.673.448l6.971-6.971 5.892 1.184 1.19 5.892-6.972 6.971a1 1 0 0 0 .448 1.673 13.009 13.009 0 0 0 16.277-14.051 3.047 3.047 0 0 1 .924-2.458l2.423-2.423 16.9 16.906a1 1 0 0 0 .464.263l11.31 2.83a1.01 1.01 0 0 0 .243.03 1 1 0 0 0 .97-1.243zm-7.441-2.407-3.843-.962v-3.653l2.34.468a1 1 0 0 0 1.177-1.177l-.469-2.34h3.654l.961 3.842a6.926 6.926 0 0 0 -3.82 3.822zm-2.936-8.17.354 1.768-1.767-.354-33.7-33.7 1.409-1.414zm-15.676-29a5.057 5.057 0 0 0 1.5-4.1 11.011 11.011 0 0 1 11.977-12.218l-6 6a1 1 0 0 0 -.273.905l1.421 7.069a1 1 0 0 0 .783.784l7.069 1.419a1 1 0 0 0 .905-.273l6-6a11.011 11.011 0 0 1 -12.214 11.981 5.061 5.061 0 0 0 -4.1 1.5l-2.425 2.419-2.837-2.837c.02-.017.045-.023.064-.042l4-4a1 1 0 0 0 -1.414-1.414l-4 4c-.019.019-.025.044-.042.064l-2.837-2.837zm-15.2-7.533 35.035 35.039h-2.823l-33.626-33.625zm-14.85-.709a5 5 0 1 1 7.071-7.071l2.121 2.121-7.071 7.071zm3.535 3.536 7.072-7.072 2.828 2.829-7.072 7.071zm18.841 26.506a5.057 5.057 0 0 0 -1.5 4.1 11.011 11.011 0 0 1 -11.977 12.218l6-6a1 1 0 0 0 .274-.905l-1.42-7.07a1 1 0 0 0 -.783-.784l-7.07-1.419a1 1 0 0 0 -.9.273l-6 6a11.011 11.011 0 0 1 12.213-11.98 5.047 5.047 0 0 0 4.1-1.5l2.423-2.423 2.836 2.837c-.019.017-.044.023-.063.042l-4 4a1 1 0 1 0 1.414 1.414l4-4c.019-.019.025-.044.042-.063l2.837 2.836zm-14.599-22.26 1.417-1.417 33.625 33.626v2.823zm42.86 38.124a4.779 4.779 0 0 1 2.34-2.34l.781 3.121z"/></svg>